<svg xmlns="http://www.w3.org/2000/svg" width="512.001" height="456.406" viewBox="0 0 512.001 456.406">
  <g id="_086-home" data-name="086-home" transform="translate(0.001 -27.797)">
    <g id="Group_7" data-name="Group 7">
      <g id="Group_6" data-name="Group 6">
        <path id="Path_3" data-name="Path 3" d="M506.555,208.064l-242.7-177.7a13.3,13.3,0,0,0-15.716,0l-242.7,177.7a13.3,13.3,0,0,0,15.718,21.468L256,57.588,490.837,229.531a13.3,13.3,0,0,0,15.718-21.467Z" fill="#fff"/>
      </g>
    </g>
    <g id="Group_9" data-name="Group 9">
      <g id="Group_8" data-name="Group 8">
        <path id="Path_4" data-name="Path 4" d="M442.246,232.543a13.3,13.3,0,0,0-13.3,13.3V457.595H322.521V342.009a66.52,66.52,0,1,0-133.04,0V457.6H83.058V245.847a13.3,13.3,0,0,0-26.606,0V470.9a13.3,13.3,0,0,0,13.3,13.3H202.784a13.3,13.3,0,0,0,13.251-12.267,10.035,10.035,0,0,0,.052-1.036V342.01a39.914,39.914,0,0,1,79.828,0V470.9a9.759,9.759,0,0,0,.052,1.024A13.3,13.3,0,0,0,309.218,484.2H442.247a13.3,13.3,0,0,0,13.3-13.3V245.847A13.3,13.3,0,0,0,442.246,232.543Z" fill="#fff"/>
      </g>
    </g>
  </g>
</svg>
